<svg width="20" height="28" viewBox="0 0 20 28" fill="none" xmlns="http://www.w3.org/2000/svg">
<path fill-rule="evenodd" clip-rule="evenodd" d="M10 28C4.486 28 0 23.514 0 18C0 12.846 8.258 1.659 9.199 0.401999C9.577 -0.104001 10.423 -0.104001 10.801 0.401999C11.742 1.659 20 12.846 20 18C20 23.514 15.514 28 10 28ZM16.782 19.506C16.987 18.993 16.737 18.411 16.224 18.206C15.708 18 15.129 18.252 14.925 18.764C14.115 20.79 12.182 22.1 10 22.1C9.448 22.1 9 22.547 9 23.1C9 23.652 9.448 24.1 10 24.1C13.006 24.1 15.668 22.296 16.782 19.506Z" fill="white"/>
</svg>
