<svg width="118" height="118" viewBox="0 0 118 118" fill="none" xmlns="http://www.w3.org/2000/svg">
<path d="M58.6037 0.296875C54.5064 0.296875 51.287 3.51621 51.287 7.61355C51.287 11.7109 54.5064 14.9302 58.6037 14.9302C62.7011 14.9302 65.9204 11.7109 65.9204 7.61355C65.9204 3.51621 62.7011 0.296875 58.6037 0.296875ZM22.0203 14.9302C17.923 14.9302 14.7037 18.1496 14.7037 22.2469C14.7037 26.3442 17.923 29.5636 22.0203 29.5636C26.1177 29.5636 29.337 26.3442 29.337 22.2469C29.337 18.1496 26.1177 14.9302 22.0203 14.9302ZM95.1871 14.9302C91.0898 14.9302 87.8704 18.1496 87.8704 22.2469C87.8704 26.3442 91.0898 29.5636 95.1871 29.5636C99.2844 29.5636 102.504 26.3442 102.504 22.2469C102.504 18.1496 99.2844 14.9302 95.1871 14.9302ZM58.6037 29.5636C42.507 29.5636 29.337 42.7336 29.337 58.8303C29.337 74.927 42.507 88.097 58.6037 88.097C74.7004 88.097 87.8704 74.927 87.8704 58.8303C87.8704 42.7336 74.7004 29.5636 58.6037 29.5636ZM7.38699 51.5136C3.28965 51.5136 0.0703125 54.7329 0.0703125 58.8303C0.0703125 62.9276 3.28965 66.147 7.38699 66.147C11.4843 66.147 14.7037 62.9276 14.7037 58.8303C14.7037 54.7329 11.4843 51.5136 7.38699 51.5136ZM109.82 51.5136C105.723 51.5136 102.504 54.7329 102.504 58.8303C102.504 62.9276 105.723 66.147 109.82 66.147C113.918 66.147 117.137 62.9276 117.137 58.8303C117.137 54.7329 113.918 51.5136 109.82 51.5136ZM22.0203 88.097C17.923 88.097 14.7037 91.3163 14.7037 95.4137C14.7037 99.511 17.923 102.73 22.0203 102.73C26.1177 102.73 29.337 99.511 29.337 95.4137C29.337 91.3163 26.1177 88.097 22.0203 88.097ZM95.1871 88.097C91.0898 88.097 87.8704 91.3163 87.8704 95.4137C87.8704 99.511 91.0898 102.73 95.1871 102.73C99.2844 102.73 102.504 99.511 102.504 95.4137C102.504 91.3163 99.2844 88.097 95.1871 88.097ZM58.6037 102.73C54.5064 102.73 51.287 105.95 51.287 110.047C51.287 114.144 54.5064 117.364 58.6037 117.364C62.7011 117.364 65.9204 114.144 65.9204 110.047C65.9204 105.95 62.7011 102.73 58.6037 102.73Z" fill="yellow"/>
</svg>
