<svg width="118" height="100" viewBox="0 0 118 100" fill="none" xmlns="http://www.w3.org/2000/svg">
<path d="M29.2667 0C21.2184 0 14.048 3.36567 8.63368 8.63368C3.36567 13.9017 0 21.072 0 29.2667C0 37.3151 3.36567 44.4854 8.63368 49.8997L58.5334 99.7995L108.433 49.8997C113.701 44.6317 117.067 37.4614 117.067 29.2667C117.067 21.2184 113.701 14.048 108.433 8.63368C103.165 3.36567 95.9948 0 87.8001 0C79.7518 0 72.5814 3.36567 67.1671 8.63368C61.8991 13.9017 58.5334 21.072 58.5334 29.2667C58.5334 21.2184 55.1677 14.048 49.8997 8.63368C44.6317 3.36567 37.4614 0 29.2667 0Z" fill="black"/>
</svg>
