<svg width="118" height="118" viewBox="0 0 118 118" fill="none" xmlns="http://www.w3.org/2000/svg">
<path d="M58.5334 0C26.34 0 0 26.34 0 58.5334C0 90.7268 26.34 117.067 58.5334 117.067C90.7268 117.067 117.067 90.7268 117.067 58.5334C117.067 26.34 90.7268 0 58.5334 0ZM58.5334 14.6334C82.8248 14.6334 102.433 34.242 102.433 58.5334C102.433 82.8248 82.8248 102.433 58.5334 102.433C34.242 102.433 14.6334 82.8248 14.6334 58.5334C14.6334 34.242 34.242 14.6334 58.5334 14.6334ZM51.2167 29.2667V61.7527L53.5581 63.6551L60.8747 70.9718L65.8501 76.5324L76.3861 65.9964L70.8254 61.0211L65.8501 56.0457V29.5594H51.2167V29.2667Z" fill="green"/>
</svg>
