<svg width="20" height="20" viewBox="0 0 20 20" fill="none" xmlns="http://www.w3.org/2000/svg">
<g clip-path="url(#clip0_1_14)">
<path fill-rule="evenodd" clip-rule="evenodd" d="M16.563 18H3.43804C2.73204 18 2.21003 17.303 2.47703 16.662C3.71303 13.698 6.61704 12 10 12C13.384 12 16.288 13.698 17.524 16.662C17.791 17.303 17.269 18 16.563 18ZM5.91704 5.99998C5.91704 3.79398 7.74904 1.99998 10 1.99998C12.252 1.99998 14.083 3.79398 14.083 5.99998C14.083 8.20598 12.252 9.99998 10 9.99998C7.74904 9.99998 5.91704 8.20598 5.91704 5.99998ZM19.956 17.636C19.214 14.277 16.892 11.798 13.837 10.673C15.456 9.39596 16.4 7.33093 16.053 5.06993C15.651 2.44693 13.423 0.347977 10.735 0.0419769C7.02304 -0.381023 3.87504 2.44898 3.87504 5.99998C3.87504 7.88998 4.76904 9.57396 6.16404 10.673C3.10704 11.798 0.787035 14.277 0.0440348 17.636C-0.225965 18.857 0.779037 20 2.05404 20H17.946C19.222 20 20.226 18.857 19.956 17.636Z" fill="white"/>
</g>
<defs>
<clipPath id="clip0_1_14">
<rect width="20" height="20" fill="white"/>
</clipPath>
</defs>
</svg>
