<svg width="152" height="144" viewBox="0 0 152 144" fill="none" xmlns="http://www.w3.org/2000/svg">
<g filter="url(#filter0_d_1_646)">
<rect x="50" y="49" width="52" height="44" rx="12" fill="white" shape-rendering="crispEdges"/>
<g clip-path="url(#clip0_1_646)">
<path d="M82.031 75.617L86.314 79.899L84.899 81.314L80.617 77.031C79.0237 78.3082 77.042 79.0029 75 79C70.032 79 66 74.968 66 70C66 65.032 70.032 61 75 61C79.968 61 84 65.032 84 70C84.0029 72.042 83.3082 74.0237 82.031 75.617ZM80.025 74.875C81.2941 73.5699 82.0029 71.8204 82 70C82 66.132 78.867 63 75 63C71.132 63 68 66.132 68 70C68 73.867 71.132 77 75 77C76.8204 77.0029 78.5699 76.2941 79.875 75.025L80.025 74.875Z" fill="black"/>
</g>
<rect x="50.5" y="49.5" width="51" height="43" rx="11.5" stroke="#E8E7E7" shape-rendering="crispEdges"/>
</g>
<defs>
<filter id="filter0_d_1_646" x="0" y="0" width="152" height="144" filterUnits="userSpaceOnUse" color-interpolation-filters="sRGB">
<feFlood flood-opacity="0" result="BackgroundImageFix"/>
<feColorMatrix in="SourceAlpha" type="matrix" values="0 0 0 0 0 0 0 0 0 0 0 0 0 0 0 0 0 0 127 0" result="hardAlpha"/>
<feOffset dy="1"/>
<feGaussianBlur stdDeviation="25"/>
<feComposite in2="hardAlpha" operator="out"/>
<feColorMatrix type="matrix" values="0 0 0 0 0 0 0 0 0 0 0 0 0 0 0 0 0 0 0.02 0"/>
<feBlend mode="normal" in2="BackgroundImageFix" result="effect1_dropShadow_1_646"/>
<feBlend mode="normal" in="SourceGraphic" in2="effect1_dropShadow_1_646" result="shape"/>
</filter>
<clipPath id="clip0_1_646">
<rect width="24" height="24" fill="white" transform="translate(64 59)"/>
</clipPath>
</defs>
</svg>
